HIERARCHY
ROOT Hips
{
	OFFSET 0.00 0.00 0.00
	CHANNELS 6 Xposition Yposition Zposition Xrotation Yrotation Zrotation
	JOINT Spine
	{
		OFFSET 0.00000 5.89385 0.00000
		CHANNELS 3 Xrotation Yrotation Zrotation
		JOINT Head
		{
			OFFSET 0.00000 16.44715 0.00000
			CHANNELS 3 Xrotation Yrotation Zrotation
			End Site
			{
				OFFSET 0.00000 4.52755 0.00000
			}
		}
		JOINT LeftShoulder
		{
			OFFSET 0.00000 10.90038 0.00000
			CHANNELS 3 Xrotation Yrotation Zrotation
			JOINT LeftArm
			{
				OFFSET 8.21946 0.00000 0.00000
				CHANNELS 3 Xrotation Yrotation Zrotation
				JOINT LeftForeArm
				{
					OFFSET 11.09494 0.00000 0.00000
					CHANNELS 3 Yrotation Zrotation Xrotation
					JOINT LeftHand
					{
						OFFSET 9.10388 0.00000 0.00000
						CHANNELS 3 Xrotation Yrotation Zrotation
						JOINT LeftHandThumb1
						{
							OFFSET 0.00000 0.00000 0.00000
							CHANNELS 3 Xrotation Zrotation Yrotation
							End Site
							{
								OFFSET 0.00000 0.00000 3.93700
							}
						}
						End Site
						{
							OFFSET 3.93700 0.00000 0.00000
						}
					}
				}
			}
		}
		JOINT RightShoulder
		{
			OFFSET 0.00000 10.90038 0.00000
			CHANNELS 3 Xrotation Yrotation Zrotation
			JOINT RightArm
			{
				OFFSET -8.21946 0.00000 0.00000
				CHANNELS 3 Xrotation Yrotation Zrotation
				JOINT RightForeArm
				{
					OFFSET -11.09494 0.00000 0.00000
					CHANNELS 3 Yrotation Zrotation Xrotation
					JOINT RightHand
					{
						OFFSET -9.10388 0.00000 0.00000
						CHANNELS 3 Xrotation Yrotation Zrotation
						JOINT RightHandThumb1
						{
							OFFSET 0.00000 0.00000 0.00000
							CHANNELS 3 Xrotation Zrotation Yrotation
							End Site
							{
								OFFSET 0.00000 0.00000 3.93700
							}
						}
						End Site
						{
							OFFSET -3.93700 0.00000 0.00000
						}
					}
				}
			}
		}
	}
	JOINT LeftUpLeg
	{
		OFFSET 3.69794 0.00000 0.00000
		CHANNELS 3 Xrotation Yrotation Zrotation
		JOINT LeftLeg
		{
			OFFSET 0.00000 -16.18147 0.00000
			CHANNELS 3 Xrotation Yrotation Zrotation
			JOINT LeftFoot
			{
				OFFSET 0.00000 -16.50139 0.00000
				CHANNELS 3 Xrotation Yrotation Zrotation
				JOINT LeftToeBase
				{
					OFFSET 0.00000 -1.65857 6.18989
					CHANNELS 3 Xrotation Yrotation Zrotation
					End Site
					{
						OFFSET 0.00000 0.00000 2.95275
					}
				}
			}
		}
	}
	JOINT RightUpLeg
	{
		OFFSET -3.69794 0.00000 0.00000
		CHANNELS 3 Xrotation Yrotation Zrotation
		JOINT RightLeg
		{
			OFFSET 0.00000 -16.18147 0.00000
			CHANNELS 3 Xrotation Yrotation Zrotation
			JOINT RightFoot
			{
				OFFSET 0.00000 -16.50139 0.00000
				CHANNELS 3 Xrotation Yrotation Zrotation
				JOINT RightToeBase
				{
					OFFSET 0.00000 -1.65857 6.18989
					CHANNELS 3 Xrotation Yrotation Zrotation
					End Site
					{
						OFFSET 0.00000 0.00000 2.95275
					}
				}
			}
		}
	}
}
MOTION
Frames: 20
Frame Time: 0.008333
 7.0278 38.3238 5.2118 -154.2485 -60.9802 169.5826 36.1279 8.7692 7.3155 -15.8154 10.9610 20.7305 7.9810 9.6334 20.3357 -20.2252 -11.2152 -75.9483 -47.9858 -0.0000 32.4109 2.1912 14.2085 -8.8604 33.1476 -0.0000 26.2537 51.0733 -15.9470 11.8634 -45.4395 28.5232 82.9207 16.6613 -0.0000 -19.7898 -0.6274 3.1854 11.1484 32.8623 0.0000 -24.3270 -16.8941 37.7122 40.5241 14.3738 -0.0000 0.0000 -12.0962 10.5564 -8.2276 5.5155 0.0000 0.0000 -61.5162 -0.9658 -36.6751 127.8284 -0.0000 0.0000 8.8265 9.1923 21.9305 -1.9813 0.0000 -0.0000
 7.0441 38.3457 5.2264 -155.7015 -61.0247 168.0826 35.4423 8.6412 7.5938 -16.0258 10.9532 20.7496 8.0056 9.6644 20.3089 -20.0078 -11.6454 -76.4524 -47.4588 -0.0000 32.4699 2.2254 14.0460 -9.0969 33.1476 -0.0000 26.2537 51.0028 -15.9313 11.8811 -45.4987 27.7428 82.7505 16.8858 -0.0000 -20.0782 -0.6596 3.3573 11.1221 32.8623 0.0000 -24.3270 -17.6374 37.5770 40.6713 14.0824 0.0000 -0.0000 -11.9598 10.5298 -8.2585 5.5800 -0.0000 0.0000 -61.4818 -0.4893 -36.8292 127.8174 -0.0000 -0.0000 8.7191 9.1377 21.7186 -2.0837 -0.0000 -0.0000
 7.0217 38.3712 5.2360 -155.9382 -61.1400 167.6747 35.4435 8.5705 7.8794 -16.3204 10.9536 20.6435 8.0248 9.6786 20.2628 -19.8822 -12.1147 -76.9431 -46.9426 -0.0000 32.4228 2.2713 13.9931 -9.3152 33.1476 -0.0000 26.2537 50.8551 -15.9884 11.8051 -45.5813 27.0205 82.6303 17.1063 -0.0000 -20.3460 -0.6685 3.4926 10.8432 32.8623 0.0000 -24.3270 -17.6555 37.6400 40.7572 13.5864 0.0000 -0.0000 -11.7653 10.4638 -8.3388 5.7063 -0.0000 0.0000 -60.7024 0.0286 -37.0611 127.7852 -0.0000 0.0000 8.5503 9.0869 21.3944 -1.7835 0.0000 -0.0000
 6.9929 38.3936 5.2397 -155.9965 -61.1092 167.4179 35.4959 8.6291 8.0758 -16.5880 10.9394 20.5729 8.0658 9.7192 20.2315 -19.7713 -12.6017 -77.4136 -46.4636 -0.0000 32.4319 2.3450 13.8805 -9.6869 33.1476 -0.0000 26.2537 50.7354 -16.0111 11.7401 -45.6171 26.3113 82.4730 17.3995 -0.0000 -20.5572 -0.6853 3.7030 10.4928 32.8623 0.0000 -24.3270 -17.6720 37.9363 40.9485 13.0429 0.0000 0.0000 -11.5909 10.3172 -8.4255 5.8357 -0.0000 -0.0000 -59.8584 0.6197 -37.1348 127.7680 0.0000 0.0000 8.3222 8.8770 21.0092 -1.4626 -0.0000 -0.0000
 6.9669 38.4128 5.2478 -156.0697 -61.1295 167.1616 35.5482 8.6610 8.3074 -16.8182 10.9143 20.4820 8.0918 9.7280 20.1945 -19.6561 -13.1419 -77.8619 -45.9973 -0.0000 32.3068 2.3292 13.9606 -9.5698 33.1476 -0.0000 26.2537 50.6692 -16.0345 11.6938 -45.7356 25.5918 82.3307 17.6379 -0.0000 -20.8120 -0.6931 3.9069 10.0673 32.8623 0.0000 -24.3270 -17.6985 38.1647 41.1105 12.5560 -0.0000 -0.0000 -11.4372 10.1704 -8.4834 5.9552 -0.0000 0.0000 -58.9829 1.2075 -37.2427 127.7644 0.0000 0.0000 8.0938 8.6043 20.6009 -1.6234 -0.0000 -0.0000
 6.9457 38.4313 5.2607 -156.2889 -61.4245 166.7966 35.6006 8.4740 8.6842 -17.0820 10.8635 20.4139 8.0757 9.7250 20.1828 -19.5143 -13.7679 -78.2525 -45.5636 -0.0000 32.2725 2.4141 13.5878 -10.1736 33.1476 -0.0000 26.2537 50.5289 -16.0546 11.6605 -45.8013 24.8578 82.1769 17.8522 -0.0000 -21.1213 -0.6885 4.0912 9.5613 32.8623 0.0000 -24.3270 -17.6009 37.9628 41.0616 12.1735 0.0000 0.0000 -11.3061 10.1483 -8.4577 5.9984 0.0000 -0.0000 -58.0310 1.6449 -37.6251 127.7472 -0.0000 0.0000 7.7839 8.3064 20.1546 -1.5729 0.0000 -0.0000
 6.9160 38.4491 5.2673 -156.2781 -61.5823 166.6245 35.7224 8.4098 8.9822 -17.2775 10.8665 20.3750 8.0654 9.7279 20.1892 -19.3563 -14.3839 -78.6489 -45.1526 -0.0000 32.2484 2.4171 13.4457 -10.2890 33.1476 -0.0000 26.2537 50.4385 -16.0594 11.6131 -45.9065 24.1773 82.0508 18.0142 -0.0000 -21.4871 -0.6667 4.2996 8.8225 32.8623 0.0000 -24.3270 -17.4826 37.9395 41.1260 11.8107 -0.0000 0.0000 -11.1874 10.0871 -8.4702 6.0659 0.0000 -0.0000 -57.0373 2.0933 -37.8477 127.7875 -0.0000 -0.0000 7.3882 7.8408 19.1546 -1.6611 -0.0000 0.0000
 6.8857 38.4674 5.2716 -156.2258 -61.7445 166.4808 35.8383 8.3777 9.2849 -17.4186 10.8454 20.3675 8.0408 9.7020 20.2241 -19.1908 -14.9990 -79.0530 -44.7799 -0.0000 32.2034 2.4205 13.6589 -10.1489 33.1476 -0.0000 26.2537 50.3231 -16.0592 11.5389 -46.0293 23.3731 81.9704 18.0403 -0.0000 -21.8411 -0.6623 4.5622 8.2692 32.8623 0.0000 -24.3270 -17.3027 37.8184 41.1748 11.5179 -0.0000 -0.0000 -11.0809 10.1129 -8.5648 6.0941 0.0000 0.0000 -55.9995 2.5155 -38.0364 127.8469 0.0000 0.0000 6.9340 7.2993 18.3356 -1.5502 -0.0000 0.0000
 6.8552 38.4820 5.2767 -156.1738 -61.8588 166.3725 35.9588 8.3251 9.5199 -17.5612 10.8572 20.4137 7.9647 9.7174 20.2858 -18.9584 -15.7213 -79.4173 -44.4278 -0.0000 32.0656 2.4496 13.7096 -10.2322 33.1476 -0.0000 26.2537 50.2118 -16.0375 11.5128 -46.0787 22.8637 81.8286 18.1716 -0.0000 -22.3832 -0.5979 4.7266 7.2182 32.8623 0.0000 -24.3270 -17.0900 37.7149 41.1819 11.2532 -0.0000 0.0000 -10.9842 10.1576 -8.6543 6.1604 -0.0000 0.0000 -54.9992 2.9892 -38.2013 127.9312 -0.0000 -0.0000 6.4966 6.7634 17.2970 -1.2687 0.0000 0.0000
 6.8248 38.4946 5.2768 -156.1597 -61.8242 166.2418 36.0012 8.4126 9.6515 -17.6417 10.8081 20.4802 7.9159 9.7469 20.3429 -18.7574 -16.5073 -79.7320 -44.0739 -0.0000 31.9593 2.4675 13.7858 -10.2504 33.1476 -0.0000 26.2537 50.0804 -16.0184 11.4839 -46.1398 22.0772 81.7349 18.1828 -0.0000 -22.6731 -0.5695 4.8940 6.6460 32.8623 0.0000 -24.3270 -16.9792 37.7536 41.2686 11.0344 -0.0000 -0.0000 -10.9017 10.1630 -8.8106 6.1688 0.0000 -0.0000 -54.0993 3.5564 -38.2407 128.0557 0.0000 0.0000 6.1265 6.2083 16.3917 -1.0960 0.0000 0.0000
 6.7947 38.5037 5.2804 -156.1626 -61.8502 166.1330 36.0418 8.4730 9.7869 -17.7106 10.7260 20.5711 7.8473 9.7137 20.4308 -18.4992 -17.2605 -80.0264 -43.8299 -0.0000 31.8832 2.4905 13.4008 -10.6291 33.1476 -0.0000 26.2537 49.9500 -16.0076 11.4735 -46.1640 21.3087 81.6353 18.2338 -0.0000 -22.9335 -0.5313 5.0518 6.0114 32.8623 0.0000 -24.3270 -16.8338 37.7069 41.2778 10.8772 -0.0000 0.0000 -10.8532 10.2079 -8.9306 6.2217 0.0000 -0.0000 -53.2157 4.1019 -38.3744 128.1780 0.0000 0.0000 5.9077 5.6618 15.5465 -1.1797 -0.0000 -0.0000
 6.7614 38.5138 5.2845 -156.0417 -61.9843 166.1049 36.1878 8.4515 10.0190 -17.8015 10.6449 20.6347 7.7319 9.6887 20.5124 -18.1969 -18.0088 -80.3051 -43.6022 -0.0000 31.8771 2.4790 13.6931 -10.3641 33.1476 -0.0000 26.2537 49.7684 -15.9871 11.3989 -46.1374 20.4888 81.5375 18.3607 -0.0000 -23.0879 -0.4893 5.2047 5.3786 32.8623 0.0000 -24.3270 -16.6327 37.5433 41.2954 10.7681 0.0000 0.0000 -10.8297 10.2715 -9.0080 6.2137 -0.0000 -0.0000 -52.2340 4.5025 -38.5955 128.3029 0.0000 -0.0000 5.7010 5.1159 14.7244 -0.9803 0.0000 0.0000
 6.6838 38.5256 5.2808 -154.6380 -62.3318 167.3267 37.0243 8.3236 10.2195 -17.9116 10.5649 20.6257 7.6576 9.7164 20.5740 -18.0170 -18.8314 -80.5379 -43.4123 -0.0000 32.0382 2.4711 13.1893 -10.7102 33.1476 -0.0000 26.2537 49.6089 -16.0265 11.2769 -46.2331 19.6267 81.5336 18.4678 -0.0000 -23.1332 -0.4578 5.2694 4.9726 32.8623 0.0000 -24.3270 -15.6240 37.4805 41.1259 10.5123 0.0000 -0.0000 -10.7114 10.2728 -9.0807 6.1133 0.0000 -0.0000 -50.4867 4.8826 -39.1176 128.3773 -0.0000 -0.0000 5.5560 4.7513 13.8009 -0.6317 -0.0000 0.0000
 6.5690 38.5420 5.2702 -152.0245 -62.7858 169.6556 38.4814 8.1753 10.4270 -18.0812 10.5082 20.5740 7.5642 9.7381 20.6747 -17.8738 -19.5925 -80.7926 -43.2837 -0.0000 31.9704 2.4352 12.7393 -10.9159 33.1476 -0.0000 26.2537 49.3684 -16.0970 11.0304 -46.3125 18.7130 81.6001 18.5852 -0.0000 -23.2420 -0.4362 5.3517 4.6666 32.8623 0.0000 -24.3270 -14.0027 37.5493 40.9257 10.1354 0.0000 -0.0000 -10.5280 10.1776 -9.1618 5.9114 0.0000 -0.0000 -48.0710 5.1509 -39.8012 128.3735 0.0000 -0.0000 5.4054 4.5235 12.8574 -0.1002 -0.0000 0.0000
 6.4448 38.5605 5.2598 -149.0605 -63.1936 172.2931 40.0692 8.0406 10.6588 -18.2394 10.4575 20.4997 7.3983 9.6954 20.7934 -17.5909 -20.2307 -81.0370 -43.2810 -0.0000 31.9513 2.4558 12.7853 -10.9681 33.1476 -0.0000 26.2537 49.1194 -16.1783 10.7459 -46.3972 17.8601 81.6976 18.6636 -0.0000 -23.5278 -0.4162 5.5661 4.2833 32.8623 0.0000 -24.3270 -12.1975 37.6378 40.7054 9.6849 0.0000 0.0000 -10.3133 10.1257 -9.2369 5.7332 -0.0000 -0.0000 -45.5334 5.3331 -40.4834 128.3297 -0.0000 -0.0000 5.3115 4.3560 11.9180 0.3131 0.0000 -0.0000
 6.2669 38.5873 5.2393 -144.4012 -63.7231 176.4970 42.4021 7.8155 10.9987 -18.3601 10.4409 20.3055 7.3496 9.6678 20.9120 -17.4830 -20.8429 -81.2820 -43.2909 -0.0000 31.8009 2.4763 12.7212 -11.1107 33.1476 -0.0000 26.2537 48.8501 -16.3705 10.3298 -46.5219 17.0717 81.9282 18.6976 -0.0000 -23.8647 -0.3982 5.7882 3.9418 32.8623 0.0000 -24.3270 -9.5664 37.8026 40.4159 9.0576 -0.0000 0.0000 -10.0288 9.9454 -9.3203 5.5912 0.0000 -0.0000 -42.1006 5.2556 -41.4736 128.1529 -0.0000 0.0000 5.2036 4.3407 10.9645 0.7043 -0.0000 0.0000
 6.0840 38.6236 5.2189 -139.4064 -64.2420 -179.0246 44.8107 7.4946 11.4721 -18.4942 10.4480 20.1558 7.2783 9.7429 21.0375 -17.4106 -21.5235 -81.5215 -43.2859 -0.0000 31.6262 2.4756 12.5964 -11.2133 33.1476 -0.0000 26.2537 48.5905 -16.5554 9.9276 -46.6576 16.3934 82.1371 18.7286 -0.0000 -24.0738 -0.3739 5.8847 3.6419 32.8623 0.0000 -24.3270 -6.9278 37.8171 40.1981 8.4516 0.0000 -0.0000 -9.6799 9.7617 -9.4829 5.3771 -0.0000 0.0000 -38.5744 4.8570 -42.5034 127.8881 0.0000 0.0000 5.1017 4.3367 9.9647 0.8518 -0.0000 -0.0000
 5.9299 38.6623 5.2041 -135.1116 -64.5109 -175.3029 46.8273 7.3399 11.9978 -18.6454 10.4839 20.0048 7.2407 9.8023 21.1067 -17.2752 -22.0758 -81.7199 -43.3442 -0.0000 31.5361 2.4781 12.4842 -11.3211 33.1476 -0.0000 26.2537 48.3969 -16.7080 9.5388 -46.7937 15.7766 82.3056 18.7986 -0.0000 -24.2467 -0.3414 5.9926 3.2669 32.8623 0.0000 -24.3270 -4.8534 37.8368 40.2367 7.9738 -0.0000 -0.0000 -9.4209 9.6087 -9.6081 5.3644 0.0000 -0.0000 -35.5779 4.3978 -43.1944 127.6319 -0.0000 0.0000 5.0832 4.3068 9.1694 0.6204 -0.0000 -0.0000
 5.7776 38.7010 5.1873 -130.8508 -64.8259 -171.5372 48.7167 7.0757 12.5689 -18.7176 10.4590 19.8871 7.2328 9.7718 21.2331 -17.0799 -22.4968 -81.8989 -43.4185 -0.0000 31.4739 2.4699 12.3157 -11.4325 33.1476 -0.0000 26.2537 48.2461 -16.8740 9.2078 -46.9173 15.1259 82.5029 18.8601 -0.0000 -24.2495 -0.3105 6.0832 2.9279 32.8623 0.0000 -24.3270 -2.8282 37.6253 40.2013 7.5915 -0.0000 0.0000 -9.1653 9.5101 -9.7520 5.2322 0.0000 -0.0000 -32.6654 3.7593 -44.0174 127.3520 -0.0000 -0.0000 5.0866 4.4149 8.3645 0.3826 0.0000 -0.0000
 5.6186 38.7446 5.1690 -126.3008 -65.1578 -167.4830 50.6437 6.7001 13.2312 -18.7807 10.4509 19.8170 7.2714 9.8795 21.3470 -17.0349 -22.9739 -82.0862 -43.4270 -0.0000 31.2999 2.4639 12.1605 -11.5448 33.1476 -0.0000 26.2537 48.0055 -17.0357 8.8194 -46.9659 14.4248 82.7334 18.8217 -0.0000 -24.2197 -0.2803 6.2314 2.5805 32.8623 0.0000 -24.3270 -0.7040 37.1743 40.1321 7.2623 -0.0000 0.0000 -8.9014 9.4868 -9.8926 5.0717 0.0000 -0.0000 -29.6917 2.8815 -44.9216 126.9923 0.0000 0.0000 5.1874 4.6236 7.6070 0.1876 -0.0000 0.0000
